. 
  
http://www.torrenting.com/        :     Greatest Movie Tracker on The Net!!!
 
http://www.Torrenting.com          :     Once & For all ;)


               www . Torrenting . Com 

(((((((((((((= Enjoy No RAR releases =))))))))))))))))))))


...................................NFO:....................................

.[pre][center][IMG]http://lookpic.com/c1/i2/2954/HGXUX5I.jpeg[/IMG]

[color=red][size=4][b]The Tourist (2010) BRRip 720P XViD AC3 DiVERSiTY[/b][/size][/color][/center]

[info]
[color=red][b][u]General[/u][/b][/color]
Format                           : AVI
Format/Info                      : Audio Video Interleave
Format profile                   : OpenDML
Format settings                  : rec
File size                        : 2.14 GiB
Duration                         : 1h 43mn
Overall bit rate                 : 2 954 Kbps
Writing application              : AVI-Mux GUI 1.17.8.3, Feb 16 201019:42:50
Source                           : The.Tourist.2010.1080p.Blu-ray.DTS-HD.MA5.1.x264-HiS@beAst

[color=red][b][u]Video[/u][/b][/color]
Format                           : MPEG-4 Visual
Format profile                   : Advanced Simple@L5
Format settings, BVOP            : 2
Format settings, QPel            : No
Format settings, GMC             : 3 warppoints
Format settings, Matrix          : Default (H.263)
Codec ID                         : XVID
Codec ID/Hint                    : XviD
Duration                         : 1h 43mn
Bit rate                         : 2 501 Kbps
Width                            : 1 280 pixels
Height                           : 528 pixels
Display aspect ratio             : 2.40:1
Frame rate                       : 23.976 fps
Color space                      : YUV
Chroma subsampling               : 4:2:0
Bit depth                        : 8 bits
Scan type                        : Progressive
Compression mode                 : Lossy
Bits/(Pixel*Frame)               : 0.154
Stream size                      : 1.81 GiB (85%)
Writing library                  : XviD 1.2.1 (UTC 2008-12-04)

[color=red][b][u]Audio[/u][/b][/color]
Format                           : AC-3
Format/Info                      : Audio Coding 3
Mode extension                   : CM (complete main)
Codec ID                         : 2000
Duration                         : 1h 43mn
Bit rate mode                    : Constant
Bit rate                         : 448 Kbps
Channel(s)                       : 6 channels
Channel positions                : Front: L C R, Side: L R, LFE
Sampling rate                    : 48.0 KHz
Bit depth                        : 16 bits
Compression mode                 : Lossy
Stream size                      : 332 MiB (15%)
Alignment                        : Aligned on interleaves
Interleave, duration             : 64 ms (1.53 video frames)
Interleave, preload duration     : 192 ms

[cast]
Johnny Depp                      : Frank Tupelo
Angelina Jolie                   : Elise Clifton-Ward
Paul Bettany                     : Inspector John Acheson
Timothy Dalton                   : Chief Inspector Jones
Steven Berkoff                   : Reginald Shaw
Rufus Sewell                     : The Englishman

[plot]
Revolves around Frank, an American tourist visiting Italy to mend a broken heart.
Elise is an extraordinary woman who deliberately crosses his path.

[note]

[color=red][b]Sample Included.

Enjoy!

Don't forget to thank the uploader.

Greets to:[/b][/color]

TOXiC, FLAWL3SS, DiGiTAL iNK, iNiTiALanIme, RDX, Zia, Merwais, Smelly,
Hibees,Toon, Tinners, 202122, PureDarkness, mgw012, Skrufern...

... and everyone who spends their own time and cash to share and make P2P great. :clap:

[screens]
[center][IMG]http://lookpic.com/c1/i2/2526/6O91PLff.png[/IMG]
[IMG]http://lookpic.com/c1/i2/849/Dmk2xAH0.png[/IMG]
[IMG]http://lookpic.com/c1/i2/727/6PUa9gcn.png[/IMG][/center][/pre]